<?xml version="1.0" encoding="UTF-8" standalone="no"?>
<!-- Created with Inkscape (http://www.inkscape.org/) -->

<svg
   width="738.46088"
   height="300"
   viewBox="0 0 195.38444 79.374998"
   version="1.1"
   id="svg1"
   inkscape:version="1.3.2 (091e20e, 2023-11-25, custom)"
   sodipodi:docname="logolukinove.svg.2025_05_30_19_22_01.0.svg"
   xml:space="preserve"
   xmlns:inkscape="http://www.inkscape.org/namespaces/inkscape"
   xmlns:sodipodi="http://sodipodi.sourceforge.net/DTD/sodipodi-0.dtd"
   xmlns:xlink="http://www.w3.org/1999/xlink"
   xmlns="http://www.w3.org/2000/svg"
   xmlns:svg="http://www.w3.org/2000/svg"><sodipodi:namedview
     id="namedview1"
     pagecolor="#ffffff"
     bordercolor="#999999"
     borderopacity="1"
     inkscape:showpageshadow="2"
     inkscape:pageopacity="0"
     inkscape:pagecheckerboard="0"
     inkscape:deskcolor="#d1d1d1"
     inkscape:document-units="px"
     inkscape:zoom="0.11313708"
     inkscape:cx="107109"
     inkscape:cy="82444.232"
     inkscape:window-width="1920"
     inkscape:window-height="991"
     inkscape:window-x="-9"
     inkscape:window-y="-9"
     inkscape:window-maximized="1"
     showguides="false"
     inkscape:export-bgcolor="#ffffff00"
     inkscape:current-layer="layer1"><inkscape:page
       x="3.2530817e-05"
       y="2.4835443e-05"
       width="195.38445"
       height="79.375"
       id="page68"
       margin="0"
       bleed="0" /></sodipodi:namedview><defs
     id="defs1"><linearGradient
       id="swatch120"
       inkscape:swatch="solid"><stop
         style="stop-color:#ff369a;stop-opacity:1;"
         offset="0"
         id="stop120" /></linearGradient><linearGradient
       id="linearGradient197"
       inkscape:swatch="gradient"><stop
         style="stop-color:#1180d1;stop-opacity:1;"
         offset="0"
         id="stop197" /><stop
         style="stop-color:#17242b;stop-opacity:1;"
         offset="1"
         id="stop198" /></linearGradient><linearGradient
       id="swatch22"
       inkscape:swatch="solid"><stop
         style="stop-color:#e5b80b;stop-opacity:1;"
         offset="0"
         id="stop22" /></linearGradient><linearGradient
       id="swatch10"
       inkscape:swatch="solid"><stop
         style="stop-color:#0379cf;stop-opacity:1;"
         offset="0"
         id="stop10" /></linearGradient><linearGradient
       id="swatch426"
       inkscape:swatch="solid"><stop
         style="stop-color:#00aad4;stop-opacity:1;"
         offset="0"
         id="stop426" /></linearGradient><linearGradient
       id="swatch44"
       inkscape:swatch="solid"><stop
         style="stop-color:#ffeeaa;stop-opacity:1;"
         offset="0"
         id="stop45" /></linearGradient></defs><g
     inkscape:label="Vrstva 1"
     inkscape:groupmode="layer"
     id="layer1"
     transform="translate(-28734.071,-21528.636)"><path
       id="rect1205"
       style="fill:#ffffff;stroke:#ffffff;stroke-width:0;stroke-dasharray:none;paint-order:stroke fill markers"
       d="m 28734.072,21528.636 v 79.375 h 195.384 v -79.375 z m 160.712,9.335 c 3.605,0 8.988,1.785 11.705,4.073 2.472,2.076 5.103,7.978 4.39,9.836 -0.709,1.849 -3.738,1.39 -9.692,-1.463 l -5.504,-2.636 -2.873,1.465 c -8.076,4.122 -8.844,22.295 -1.283,30.392 2.449,2.622 5.23,3.863 7.087,3.162 2.054,-0.773 5.53,-4.916 6.127,-7.298 0.649,-2.579 -0.686,-3.863 -5.443,-5.247 -5.942,-1.728 -8.259,-4.843 -5.38,-7.235 2.518,-2.088 16.217,-1.889 19.183,0.289 2.048,1.497 2.437,9.375 0.695,14.013 -1.996,5.305 -6.211,11.328 -9.242,13.203 -2.972,1.834 -10.379,2.599 -14.666,1.508 v 0 c -10.384,-2.636 -17.91,-24.002 -13.038,-37.026 3.231,-8.634 10.145,-15.712 16.511,-16.907 0.43,-0.09 0.909,-0.115 1.423,-0.115 z m -44.132,2.899 c 0.537,0 1.151,0.06 1.858,0.115 l 3.3,0.231 0.202,17.172 c 0.115,9.444 -0.06,20.947 -0.384,25.56 -0.652,9.536 -1.07,10.035 -5.723,6.865 v 0 l -2.861,-1.953 v -23.154 c 0,-22.713 -0.145,-24.92 3.617,-24.845 z m -23.647,0.173 c 2.35,0 5.01,1.903 4.488,3.481 -3.94,11.867 -7.82,29.152 -8.651,38.535 -0.62,7.004 -1.837,8.441 -7.191,8.49 l -4.108,0.03 -0.381,-8.397 c -0.372,-8.198 -0.424,-8.4 -2.247,-8.657 -3.207,-0.456 -3.931,1.575 -3.375,9.487 0.462,6.58 0.396,7.068 -1.09,7.864 -1.933,1.035 -3.179,1.041 -4.927,0 v 0.03 c -3.008,-1.754 -5.382,-8.845 -7.107,-21.217 -0.664,-4.774 -1.87,-11.27 -2.68,-14.431 -2.614,-10.229 -1.616,-14.665 3.305,-14.665 2.882,0 4.045,1.58 5.098,6.931 0.995,5.051 4.133,12.912 5.16,12.915 0.338,0 2.057,-0.762 3.819,-1.694 2.934,-1.554 3.505,-1.618 6.805,-0.735 4.376,1.171 4.382,1.165 6.141,-6.941 1.52,-6.995 3.297,-10.251 5.963,-10.921 0.311,-0.09 0.643,-0.115 0.978,-0.115 z m -70.269,0.115 c 1.021,-0.06 2.089,0.09 3.586,0.427 7.217,1.615 10.543,4.408 10.684,8.968 l 0.09,2.879 h -7.714 c -8.368,0 -10.223,0.712 -10.223,3.888 0,2.348 2.38,3.814 7.792,4.794 8.896,1.613 13.528,5.643 14.172,12.326 0.643,6.698 -5.692,16.855 -12.424,19.921 -2.896,1.318 -8.758,1.737 -12.179,0.868 v 0 c -3.848,-0.977 -9.574,-7.194 -9.574,-10.393 0,-1.927 3.632,-5.841 5.417,-5.841 0.724,0 3.494,1.03 6.156,2.29 5.671,2.683 7.762,2.827 11.134,0.771 4.913,-2.995 2.441,-6.286 -6.816,-9.078 -8.204,-2.478 -10.165,-3.508 -12.493,-6.56 -2.498,-3.274 -3.274,-8.737 -1.852,-13.05 1.298,-3.934 7.03,-9.894 10.953,-11.394 1.304,-0.499 2.273,-0.764 3.291,-0.822 z" /><circle
       style="fill:none;stroke:#000000;stroke-width:28.5561;stroke-miterlimit:0"
       id="path24"
       cx="-3143.0896"
       cy="-8587.3701"
       r="314.99844"
       transform="rotate(135)" /><text
       xml:space="preserve"
       style="font-weight:bold;font-size:92.6042px;font-family:Quicksand;-inkscape-font-specification:'Quicksand Bold';text-align:center;text-anchor:middle;fill:#ffffff;fill-opacity:1;stroke:#ffffff;stroke-width:6.61458;stroke-miterlimit:0;stroke-dasharray:none;stroke-opacity:1"
       id="text24-4"
       transform="matrix(0.69655568,0,0,0.69655568,3392.5623,1158.0547)"><textPath
         xlink:href="#path24"
         startOffset="50%"
         id="textPath24-2"
         style="font-size:92.6042px;fill:#ffffff;stroke:#ffffff;stroke-width:6.61458;stroke-dasharray:none;stroke-opacity:1">KOEFINITY</textPath></text><text
       xml:space="preserve"
       style="font-weight:bold;font-size:92.6042px;font-family:Quicksand;-inkscape-font-specification:'Quicksand Bold';text-align:center;text-anchor:middle;fill:#2f7894;fill-opacity:1;stroke:#2f7894;stroke-width:6.61458;stroke-miterlimit:0;stroke-dasharray:none;stroke-opacity:1"
       id="text24"
       transform="rotate(7.3065604,15020.382,10749.407)"><textPath
         xlink:href="#path24"
         startOffset="50%"
         id="textPath24"
         style="font-size:92.6042px;stroke:#2f7894;stroke-width:6.61458;stroke-dasharray:none;stroke-opacity:1">KOEFINITY</textPath></text></g></svg>
